<svg width="60" height="79" fill="none" xmlns="http://www.w3.org/2000/svg"><g clip-path="url(#clip0_309_126)"><path d="M30 64.072c-8.267 0-15-6.617-15-14.741 0-10.943 7.595-24.576 15-24.576s15 13.633 15 24.576c0 8.124-6.733 14.741-15 14.741z" fill="#fff"/><path d="M30 .186C14.666.186 0 28.032 0 49.331 0 65.64 13.405 78.814 30 78.814S60 65.64 60 49.33C60 28.032 45.334.186 30 .186zm0 63.886c-8.267 0-15-6.617-15-14.741 0-10.943 7.595-24.576 15-24.576s15 13.633 15 24.576c0 8.124-6.733 14.741-15 14.741z" fill="#00BC87"/></g><defs><clipPath id="clip0_309_126"><path fill="#fff" d="M0 0h60v79H0z"/></clipPath></defs></svg>